<svg xmlns="http://www.w3.org/2000/svg" width="750" height="375" version="1.1"><defs><clipPath id="geometry-area"><rect width="365" height="365" x="5" y="5"/></clipPath></defs><style>text{font-size:14px}.node-name{text-anchor:middle;font-family:&quot;Courier New&quot;,Courier,monospace}.arrow,.cut,.geometry-border{fill:none;stroke-width:1}.geometry-border{stroke:gray}.arrow,.cut{stroke:#00f}.cut{stroke-dasharray:5,3}.region-boundary{stroke:orange;stroke-width:2}.inside{fill:#aaa;opacity:.2}.tree-path{fill:none;stroke:gray;stroke-width:1}.inside-node{font-weight:700}</style><g class="geometry" clip-path="url(#geometry-area)"><g class="paths"><path d="M5.0 187.5 L370.0 187.5" class="cut"/><path d="M363.5278640450004 192.2022820183398 L370.0 187.5 L363.5278640450004 182.7977179816602" class="arrow"/><path d="M5.0 187.5 L370.0 187.5" class="region-boundary"/><path d="M5.0 187.5 L370.0 187.5 L370.0 5.0 L5.0 5.0 L5.0 187.5" class="inside"/></g><g class="labels"><text x="187.5" y="187.5" class="node-name" dominant-baseline="middle">a</text><text x="187.5" y="96.25" class="node-name" dominant-baseline="middle">b</text><text x="187.5" y="278.75" class="node-name" dominant-baseline="middle">c</text></g></g><rect width="365" height="365" x="5" y="5" class="geometry-border"/><g class="tree"><g class="node-a"><text x="182.5" y="160" class="node-name" dominant-baseline="middle" transform="translate(380.0 5.0)">a</text></g><g class="node-b inside-node"><text x="91.25" y="205" class="node-name" dominant-baseline="middle" transform="translate(380.0 5.0)">b</text><path d="M100.21870870577568 200.57707515879554 L173.5312912942243 164.42292484120446" class="tree-path" transform="translate(380.0 5.0)"/></g><g class="node-c outside-node"><text x="273.75" y="205" class="node-name" dominant-baseline="middle" transform="translate(380.0 5.0)">c</text><path d="M264.78129129422433 200.57707515879554 L191.4687087057757 164.42292484120446" class="tree-path" transform="translate(380.0 5.0)"/></g></g></svg>