<svg xmlns="http://www.w3.org/2000/svg" width="750" height="375" version="1.1"><defs><clipPath id="geometry-area"><rect width="365" height="365" x="5" y="5"/></clipPath></defs><style>text{font-size:14px}.node-name{text-anchor:middle;font-family:&quot;Courier New&quot;,Courier,monospace}.arrow,.cut,.geometry-border{fill:none;stroke-width:1}.geometry-border{stroke:gray}.arrow,.cut{stroke:#00f}.cut{stroke-dasharray:5,3}.region-boundary{stroke:orange;stroke-width:2}.inside{fill:#aaa;opacity:.2}.tree-path{fill:none;stroke:gray;stroke-width:1}.inside-node{font-weight:700}</style><g class="geometry" clip-path="url(#geometry-area)"><g class="paths"><path d="M5.0 187.5 L370.0 187.5" class="cut"/><path d="M363.5278640450004 192.2022820183398 L370.0 187.5 L363.5278640450004 182.7977179816602" class="arrow"/><path d="M187.5 187.5 L187.5 5.0" class="cut"/><path d="M192.2022820183398 11.47213595499958 L187.5 5.0 L182.7977179816602 11.47213595499958" class="arrow"/><path d="M187.5 119.0625 L5.0 119.0625" class="cut"/><path d="M11.47213595499958 114.36021798166021 L5.0 119.0625 L11.47213595499958 123.76478201833979" class="arrow"/><path d="M187.5 119.0625 L141.875 119.0625" class="region-boundary"/><path d="M141.875 119.0625 L96.25 187.5" class="cut"/><path d="M95.92755994681546 179.50650061536862 L96.25 187.5 L103.75263022165379 184.7232141319275" class="arrow"/><path d="M141.875 119.0625 L96.25 187.5" class="region-boundary"/><path d="M96.25 187.5 L187.5 187.5 L187.5 119.0625 L141.875 119.0625 L96.25 187.5" class="inside"/><path d="M278.75 187.5 L187.5 50.625" class="cut"/><path d="M195.0026302216538 53.401785868072494 L187.5 50.625 L187.17755994681545 58.618499384631384" class="arrow"/><path d="M278.75 187.5 L233.125 119.0625" class="region-boundary"/><path d="M233.125 119.0625 L187.5 119.0625" class="cut"/><path d="M193.97213595499957 114.36021798166021 L187.5 119.0625 L193.97213595499957 123.76478201833979" class="arrow"/><path d="M233.125 119.0625 L187.5 119.0625" class="region-boundary"/><path d="M187.5 187.5 L278.75 187.5 L233.125 119.0625 L187.5 119.0625 L187.5 187.5" class="inside"/><path d="M187.5 370.0 L187.5 187.5" class="cut"/><path d="M192.2022820183398 193.97213595499957 L187.5 187.5 L182.7977179816602 193.97213595499957" class="arrow"/><path d="M96.25 187.5 L187.5 324.375" class="cut"/><path d="M179.9973697783462 321.5982141319275 L187.5 324.375 L187.82244005318455 316.3815006153686" class="arrow"/><path d="M96.25 187.5 L141.875 255.9375" class="region-boundary"/><path d="M141.875 255.9375 L187.5 255.9375" class="cut"/><path d="M181.02786404500043 260.63978201833976 L187.5 255.9375 L181.02786404500043 251.2352179816602" class="arrow"/><path d="M141.875 255.9375 L187.5 255.9375" class="region-boundary"/><path d="M96.25 187.5 L141.875 255.9375 L187.5 255.9375 L187.5 187.5 L96.25 187.5" class="inside"/><path d="M187.5 255.9375 L370.0 255.9375" class="cut"/><path d="M363.5278640450004 260.63978201833976 L370.0 255.9375 L363.5278640450004 251.2352179816602" class="arrow"/><path d="M187.5 255.9375 L233.125 255.9375" class="region-boundary"/><path d="M233.125 255.9375 L278.75 187.5" class="cut"/><path d="M279.07244005318455 195.49349938463138 L278.75 187.5 L271.2473697783462 190.2767858680725" class="arrow"/><path d="M233.125 255.9375 L278.75 187.5" class="region-boundary"/><path d="M187.5 255.9375 L233.125 255.9375 L278.75 187.5 L187.5 187.5 L187.5 255.9375" class="inside"/></g><g class="labels"><text x="187.5" y="187.5" class="node-name" dominant-baseline="middle">a</text><text x="187.5" y="96.25" class="node-name" dominant-baseline="middle">b</text><text x="96.25" y="119.063" class="node-name" dominant-baseline="middle">d</text><text x="119.063" y="153.281" class="node-name" dominant-baseline="middle">h</text><text x="152.014" y="157.083" class="node-name" dominant-baseline="middle">p</text><text x="62.792" y="151" class="node-name" dominant-baseline="middle">q</text><text x="96.25" y="62.031" class="node-name" dominant-baseline="middle">i</text><text x="233.125" y="119.063" class="node-name" dominant-baseline="middle">e</text><text x="210.313" y="119.063" class="node-name" dominant-baseline="middle">j</text><text x="222.986" y="157.083" class="node-name" dominant-baseline="middle">r</text><text x="202.708" y="96.25" class="node-name" dominant-baseline="middle">s</text><text x="292.788" y="85.721" class="node-name" dominant-baseline="middle">k</text><text x="187.5" y="278.75" class="node-name" dominant-baseline="middle">c</text><text x="141.875" y="255.938" class="node-name" dominant-baseline="middle">f</text><text x="164.688" y="255.938" class="node-name" dominant-baseline="middle">l</text><text x="152.014" y="217.917" class="node-name" dominant-baseline="middle">t</text><text x="172.292" y="278.75" class="node-name" dominant-baseline="middle">u</text><text x="82.212" y="289.279" class="node-name" dominant-baseline="middle">m</text><text x="278.75" y="255.938" class="node-name" dominant-baseline="middle">g</text><text x="255.938" y="221.719" class="node-name" dominant-baseline="middle">n</text><text x="222.986" y="217.917" class="node-name" dominant-baseline="middle">v</text><text x="312.208" y="224" class="node-name" dominant-baseline="middle">w</text><text x="278.75" y="312.969" class="node-name" dominant-baseline="middle">o</text></g></g><rect width="365" height="365" x="5" y="5" class="geometry-border"/><g class="tree"><g class="node-a"><text x="182.5" y="92.5" class="node-name" dominant-baseline="middle" transform="translate(380.0 5.0)">a</text></g><g class="node-b"><text x="91.25" y="137.5" class="node-name" dominant-baseline="middle" transform="translate(380.0 5.0)">b</text><path d="M100.21870870577568 133.07707515879554 L173.5312912942243 96.92292484120445" class="tree-path" transform="translate(380.0 5.0)"/></g><g class="node-d"><text x="45.625" y="182.5" class="node-name" dominant-baseline="middle" transform="translate(380.0 5.0)">d</text><path d="M52.744664484531626 175.4778651659414 L84.13033551546837 144.5221348340586" class="tree-path" transform="translate(380.0 5.0)"/></g><g class="node-h"><text x="22.813" y="227.5" class="node-name" dominant-baseline="middle" transform="translate(380.0 5.0)">h</text><path d="M27.33411931646686 218.58064134833936 L41.10338068353314 191.41935865166064" class="tree-path" transform="translate(380.0 5.0)"/></g><g class="node-p inside-node"><text x="11.406" y="272.5" class="node-name" dominant-baseline="middle" transform="translate(380.0 5.0)">p</text><path d="M13.863271274196281 262.80654620591054 L20.35547872580372 237.19345379408944" class="tree-path" transform="translate(380.0 5.0)"/></g><g class="node-q outside-node"><text x="34.219" y="272.5" class="node-name" dominant-baseline="middle" transform="translate(380.0 5.0)">q</text><path d="M31.76172872580372 262.80654620591054 L25.26952127419628 237.19345379408944" class="tree-path" transform="translate(380.0 5.0)"/></g><g class="node-i outside-node"><text x="68.438" y="227.5" class="node-name" dominant-baseline="middle" transform="translate(380.0 5.0)">i</text><path d="M63.91588068353314 218.58064134833936 L50.14661931646686 191.41935865166064" class="tree-path" transform="translate(380.0 5.0)"/></g><g class="node-e"><text x="136.875" y="182.5" class="node-name" dominant-baseline="middle" transform="translate(380.0 5.0)">e</text><path d="M129.75533551546837 175.4778651659414 L98.36966448453163 144.5221348340586" class="tree-path" transform="translate(380.0 5.0)"/></g><g class="node-j"><text x="114.063" y="227.5" class="node-name" dominant-baseline="middle" transform="translate(380.0 5.0)">j</text><path d="M118.58411931646685 218.58064134833936 L132.35338068353315 191.41935865166064" class="tree-path" transform="translate(380.0 5.0)"/></g><g class="node-r inside-node"><text x="102.656" y="272.5" class="node-name" dominant-baseline="middle" transform="translate(380.0 5.0)">r</text><path d="M105.11327127419628 262.80654620591054 L111.60547872580372 237.19345379408944" class="tree-path" transform="translate(380.0 5.0)"/></g><g class="node-s outside-node"><text x="125.469" y="272.5" class="node-name" dominant-baseline="middle" transform="translate(380.0 5.0)">s</text><path d="M123.01172872580372 262.80654620591054 L116.51952127419628 237.19345379408944" class="tree-path" transform="translate(380.0 5.0)"/></g><g class="node-k outside-node"><text x="159.688" y="227.5" class="node-name" dominant-baseline="middle" transform="translate(380.0 5.0)">k</text><path d="M155.16588068353315 218.58064134833936 L141.39661931646685 191.41935865166064" class="tree-path" transform="translate(380.0 5.0)"/></g><g class="node-c"><text x="273.75" y="137.5" class="node-name" dominant-baseline="middle" transform="translate(380.0 5.0)">c</text><path d="M264.78129129422433 133.07707515879554 L191.4687087057757 96.92292484120445" class="tree-path" transform="translate(380.0 5.0)"/></g><g class="node-f"><text x="228.125" y="182.5" class="node-name" dominant-baseline="middle" transform="translate(380.0 5.0)">f</text><path d="M235.24466448453163 175.4778651659414 L266.6303355154684 144.5221348340586" class="tree-path" transform="translate(380.0 5.0)"/></g><g class="node-l"><text x="205.313" y="227.5" class="node-name" dominant-baseline="middle" transform="translate(380.0 5.0)">l</text><path d="M209.83411931646685 218.58064134833936 L223.60338068353315 191.41935865166064" class="tree-path" transform="translate(380.0 5.0)"/></g><g class="node-t inside-node"><text x="193.906" y="272.5" class="node-name" dominant-baseline="middle" transform="translate(380.0 5.0)">t</text><path d="M196.36327127419628 262.80654620591054 L202.85547872580372 237.19345379408944" class="tree-path" transform="translate(380.0 5.0)"/></g><g class="node-u outside-node"><text x="216.719" y="272.5" class="node-name" dominant-baseline="middle" transform="translate(380.0 5.0)">u</text><path d="M214.26172872580372 262.80654620591054 L207.76952127419628 237.19345379408944" class="tree-path" transform="translate(380.0 5.0)"/></g><g class="node-m outside-node"><text x="250.938" y="227.5" class="node-name" dominant-baseline="middle" transform="translate(380.0 5.0)">m</text><path d="M246.41588068353315 218.58064134833936 L232.64661931646685 191.41935865166064" class="tree-path" transform="translate(380.0 5.0)"/></g><g class="node-g"><text x="319.375" y="182.5" class="node-name" dominant-baseline="middle" transform="translate(380.0 5.0)">g</text><path d="M312.2553355154684 175.4778651659414 L280.8696644845316 144.5221348340586" class="tree-path" transform="translate(380.0 5.0)"/></g><g class="node-n"><text x="296.563" y="227.5" class="node-name" dominant-baseline="middle" transform="translate(380.0 5.0)">n</text><path d="M301.08411931646685 218.58064134833936 L314.85338068353315 191.41935865166064" class="tree-path" transform="translate(380.0 5.0)"/></g><g class="node-v inside-node"><text x="285.156" y="272.5" class="node-name" dominant-baseline="middle" transform="translate(380.0 5.0)">v</text><path d="M287.6132712741963 262.80654620591054 L294.1054787258037 237.19345379408944" class="tree-path" transform="translate(380.0 5.0)"/></g><g class="node-w outside-node"><text x="307.969" y="272.5" class="node-name" dominant-baseline="middle" transform="translate(380.0 5.0)">w</text><path d="M305.5117287258037 262.80654620591054 L299.0195212741963 237.19345379408944" class="tree-path" transform="translate(380.0 5.0)"/></g><g class="node-o outside-node"><text x="342.188" y="227.5" class="node-name" dominant-baseline="middle" transform="translate(380.0 5.0)">o</text><path d="M337.66588068353315 218.58064134833936 L323.89661931646685 191.41935865166064" class="tree-path" transform="translate(380.0 5.0)"/></g></g></svg>