<svg xmlns="http://www.w3.org/2000/svg" width="750" height="375" version="1.1"><defs><clipPath id="geometry-area"><rect width="365" height="365" x="5" y="5"/></clipPath></defs><style>text{font-size:14px}.node-name{text-anchor:middle;font-family:&quot;Courier New&quot;,Courier,monospace}.arrow,.cut,.geometry-border{fill:none;stroke-width:1}.geometry-border{stroke:gray}.arrow,.cut{stroke:#00f}.cut{stroke-dasharray:5,3}.region-boundary{stroke:orange;stroke-width:2}.inside{fill:#aaa;opacity:.2}.tree-path{fill:none;stroke:gray;stroke-width:1}.inside-node{font-weight:700}</style><g class="geometry" clip-path="url(#geometry-area)"><g class="paths"><path d="M5.0 187.5 L370.0 187.5" class="cut"/><path d="M363.5278640450004 192.2022820183398 L370.0 187.5 L363.5278640450004 182.7977179816602" class="arrow"/><path d="M278.75 187.5 L157.08333333333334 5.0" class="cut"/><path d="M164.58596355498713 7.776785868072497 L157.08333333333334 5.0 L156.7608932801488 12.993499384631386" class="arrow"/><path d="M278.75 187.5 L233.125 119.0625" class="region-boundary"/><path d="M233.125 119.0625 L5.0 119.0625" class="cut"/><path d="M11.47213595499958 114.36021798166021 L5.0 119.0625 L11.47213595499958 123.76478201833979" class="arrow"/><path d="M233.125 119.0625 L141.875 119.0625" class="region-boundary"/><path d="M141.875 119.0625 L96.25 187.5" class="cut"/><path d="M95.92755994681546 179.50650061536862 L96.25 187.5 L103.75263022165379 184.7232141319275" class="arrow"/><path d="M141.875 119.0625 L96.25 187.5" class="region-boundary"/><path d="M96.25 187.5 L278.75 187.5 L233.125 119.0625 L141.875 119.0625 L96.25 187.5" class="inside"/><path d="M96.25 187.5 L217.91666666666666 370.0" class="cut"/><path d="M210.41403644501287 367.2232141319275 L217.91666666666666 370.0 L218.2391067198512 362.0065006153686" class="arrow"/><path d="M96.25 187.5 L141.875 255.9375" class="region-boundary"/><path d="M141.875 255.9375 L370.0 255.9375" class="cut"/><path d="M363.5278640450004 260.63978201833976 L370.0 255.9375 L363.5278640450004 251.2352179816602" class="arrow"/><path d="M141.875 255.9375 L233.125 255.9375" class="region-boundary"/><path d="M233.125 255.9375 L278.75 187.5" class="cut"/><path d="M279.07244005318455 195.49349938463138 L278.75 187.5 L271.2473697783462 190.2767858680725" class="arrow"/><path d="M233.125 255.9375 L278.75 187.5" class="region-boundary"/><path d="M96.25 187.5 L141.875 255.9375 L233.125 255.9375 L278.75 187.5 L96.25 187.5" class="inside"/></g><g class="labels"><text x="187.5" y="187.5" class="node-name" dominant-baseline="middle">a</text><text x="217.917" y="96.25" class="node-name" dominant-baseline="middle">b</text><text x="119.063" y="119.063" class="node-name" dominant-baseline="middle">d</text><text x="119.063" y="153.281" class="node-name" dominant-baseline="middle">h</text><text x="187.5" y="157.083" class="node-name" dominant-baseline="middle">l</text><text x="62.792" y="151" class="node-name" dominant-baseline="middle">m</text><text x="101.319" y="65.833" class="node-name" dominant-baseline="middle">i</text><text x="289.903" y="84.083" class="node-name" dominant-baseline="middle">e</text><text x="157.083" y="278.75" class="node-name" dominant-baseline="middle">c</text><text x="255.938" y="255.938" class="node-name" dominant-baseline="middle">f</text><text x="255.938" y="221.719" class="node-name" dominant-baseline="middle">j</text><text x="187.5" y="217.917" class="node-name" dominant-baseline="middle">n</text><text x="312.208" y="224" class="node-name" dominant-baseline="middle">o</text><text x="273.681" y="309.167" class="node-name" dominant-baseline="middle">k</text><text x="85.097" y="290.917" class="node-name" dominant-baseline="middle">g</text></g></g><rect width="365" height="365" x="5" y="5" class="geometry-border"/><g class="tree"><g class="node-a"><text x="182.5" y="92.5" class="node-name" dominant-baseline="middle" transform="translate(380.0 5.0)">a</text></g><g class="node-b"><text x="91.25" y="137.5" class="node-name" dominant-baseline="middle" transform="translate(380.0 5.0)">b</text><path d="M100.21870870577568 133.07707515879554 L173.5312912942243 96.92292484120445" class="tree-path" transform="translate(380.0 5.0)"/></g><g class="node-d"><text x="45.625" y="182.5" class="node-name" dominant-baseline="middle" transform="translate(380.0 5.0)">d</text><path d="M52.744664484531626 175.4778651659414 L84.13033551546837 144.5221348340586" class="tree-path" transform="translate(380.0 5.0)"/></g><g class="node-h"><text x="22.813" y="227.5" class="node-name" dominant-baseline="middle" transform="translate(380.0 5.0)">h</text><path d="M27.33411931646686 218.58064134833936 L41.10338068353314 191.41935865166064" class="tree-path" transform="translate(380.0 5.0)"/></g><g class="node-l inside-node"><text x="11.406" y="272.5" class="node-name" dominant-baseline="middle" transform="translate(380.0 5.0)">l</text><path d="M13.863271274196281 262.80654620591054 L20.35547872580372 237.19345379408944" class="tree-path" transform="translate(380.0 5.0)"/></g><g class="node-m outside-node"><text x="34.219" y="272.5" class="node-name" dominant-baseline="middle" transform="translate(380.0 5.0)">m</text><path d="M31.76172872580372 262.80654620591054 L25.26952127419628 237.19345379408944" class="tree-path" transform="translate(380.0 5.0)"/></g><g class="node-i outside-node"><text x="68.438" y="227.5" class="node-name" dominant-baseline="middle" transform="translate(380.0 5.0)">i</text><path d="M63.91588068353314 218.58064134833936 L50.14661931646686 191.41935865166064" class="tree-path" transform="translate(380.0 5.0)"/></g><g class="node-e outside-node"><text x="136.875" y="182.5" class="node-name" dominant-baseline="middle" transform="translate(380.0 5.0)">e</text><path d="M129.75533551546837 175.4778651659414 L98.36966448453163 144.5221348340586" class="tree-path" transform="translate(380.0 5.0)"/></g><g class="node-c"><text x="273.75" y="137.5" class="node-name" dominant-baseline="middle" transform="translate(380.0 5.0)">c</text><path d="M264.78129129422433 133.07707515879554 L191.4687087057757 96.92292484120445" class="tree-path" transform="translate(380.0 5.0)"/></g><g class="node-f"><text x="228.125" y="182.5" class="node-name" dominant-baseline="middle" transform="translate(380.0 5.0)">f</text><path d="M235.24466448453163 175.4778651659414 L266.6303355154684 144.5221348340586" class="tree-path" transform="translate(380.0 5.0)"/></g><g class="node-j"><text x="205.313" y="227.5" class="node-name" dominant-baseline="middle" transform="translate(380.0 5.0)">j</text><path d="M209.83411931646685 218.58064134833936 L223.60338068353315 191.41935865166064" class="tree-path" transform="translate(380.0 5.0)"/></g><g class="node-n inside-node"><text x="193.906" y="272.5" class="node-name" dominant-baseline="middle" transform="translate(380.0 5.0)">n</text><path d="M196.36327127419628 262.80654620591054 L202.85547872580372 237.19345379408944" class="tree-path" transform="translate(380.0 5.0)"/></g><g class="node-o outside-node"><text x="216.719" y="272.5" class="node-name" dominant-baseline="middle" transform="translate(380.0 5.0)">o</text><path d="M214.26172872580372 262.80654620591054 L207.76952127419628 237.19345379408944" class="tree-path" transform="translate(380.0 5.0)"/></g><g class="node-k outside-node"><text x="250.938" y="227.5" class="node-name" dominant-baseline="middle" transform="translate(380.0 5.0)">k</text><path d="M246.41588068353315 218.58064134833936 L232.64661931646685 191.41935865166064" class="tree-path" transform="translate(380.0 5.0)"/></g><g class="node-g outside-node"><text x="319.375" y="182.5" class="node-name" dominant-baseline="middle" transform="translate(380.0 5.0)">g</text><path d="M312.2553355154684 175.4778651659414 L280.8696644845316 144.5221348340586" class="tree-path" transform="translate(380.0 5.0)"/></g></g></svg>