<svg xmlns="http://www.w3.org/2000/svg" width="750" height="375" version="1.1"><defs><clipPath id="geometry-area"><rect width="365" height="365" x="5" y="5"/></clipPath></defs><style>text{font-size:14px}.node-name{text-anchor:middle;font-family:&quot;Courier New&quot;,Courier,monospace}.arrow,.cut,.geometry-border{fill:none;stroke-width:1}.geometry-border{stroke:gray}.arrow,.cut{stroke:#00f}.cut{stroke-dasharray:5,3}.region-boundary{stroke:orange;stroke-width:2}.inside{fill:#aaa;opacity:.2}.tree-path{fill:none;stroke:gray;stroke-width:1}.inside-node{font-weight:700}</style><g class="geometry" clip-path="url(#geometry-area)"><g class="paths"><path d="M5.0 50.625 L217.91666666666666 370.0" class="cut"/><path d="M210.41403644501287 367.2232141319275 L217.91666666666666 370.0 L218.2391067198512 362.0065006153686" class="arrow"/><path d="M96.25 187.5 L141.875 255.9375" class="region-boundary"/><path d="M141.875 255.9375 L370.0 255.9375" class="cut"/><path d="M363.5278640450004 260.63978201833976 L370.0 255.9375 L363.5278640450004 251.2352179816602" class="arrow"/><path d="M141.875 255.9375 L233.125 255.9375" class="region-boundary"/><path d="M233.125 255.9375 L370.0 50.625" class="cut"/><path d="M370.32244005318455 58.618499384631384 L370.0 50.625 L362.4973697783462 53.401785868072494" class="arrow"/><path d="M233.125 255.9375 L278.75 187.5" class="region-boundary"/><path d="M278.75 187.5 L157.08333333333334 5.0" class="cut"/><path d="M164.58596355498713 7.776785868072497 L157.08333333333334 5.0 L156.7608932801488 12.993499384631386" class="arrow"/><path d="M278.75 187.5 L233.125 119.0625" class="region-boundary"/><path d="M233.125 119.0625 L50.625 119.0625" class="cut"/><path d="M57.09713595499958 114.36021798166021 L50.625 119.0625 L57.09713595499958 123.76478201833979" class="arrow"/><path d="M233.125 119.0625 L141.875 119.0625" class="region-boundary"/><path d="M141.875 119.0625 L96.25 187.5" class="cut"/><path d="M95.92755994681546 179.50650061536862 L96.25 187.5 L103.75263022165379 184.7232141319275" class="arrow"/><path d="M141.875 119.0625 L96.25 187.5" class="region-boundary"/><path d="M96.25 187.5 L141.875 255.9375 L233.125 255.9375 L278.75 187.5 L233.125 119.0625 L141.875 119.0625 L96.25 187.5" class="inside"/></g><g class="labels"><text x="111.458" y="210.313" class="node-name" dominant-baseline="middle">a</text><text x="255.938" y="255.938" class="node-name" dominant-baseline="middle">b</text><text x="301.563" y="153.281" class="node-name" dominant-baseline="middle">d</text><text x="217.917" y="96.25" class="node-name" dominant-baseline="middle">f</text><text x="141.875" y="119.063" class="node-name" dominant-baseline="middle">h</text><text x="119.063" y="153.281" class="node-name" dominant-baseline="middle">j</text><text x="187.5" y="187.5" class="node-name" dominant-baseline="middle">l</text><text x="96.25" y="141.875" class="node-name" dominant-baseline="middle">m</text><text x="107.613" y="63.473" class="node-name" dominant-baseline="middle">k</text><text x="275.479" y="67.305" class="node-name" dominant-baseline="middle">i</text><text x="324.375" y="187.5" class="node-name" dominant-baseline="middle">g</text><text x="273.681" y="309.167" class="node-name" dominant-baseline="middle">e</text><text x="75.972" y="263.542" class="node-name" dominant-baseline="middle">c</text></g></g><rect width="365" height="365" x="5" y="5" class="geometry-border"/><g class="tree"><g class="node-a"><text x="182.5" y="47.5" class="node-name" dominant-baseline="middle" transform="translate(380.0 5.0)">a</text></g><g class="node-b"><text x="162.5" y="92.5" class="node-name" dominant-baseline="middle" transform="translate(380.0 5.0)">b</text><path d="M166.5613846605345 83.36188451379743 L178.4386153394655 56.63811548620257" class="tree-path" transform="translate(380.0 5.0)"/></g><g class="node-d"><text x="142.5" y="137.5" class="node-name" dominant-baseline="middle" transform="translate(380.0 5.0)">d</text><path d="M146.5613846605345 128.36188451379743 L158.4386153394655 101.63811548620257" class="tree-path" transform="translate(380.0 5.0)"/></g><g class="node-f"><text x="122.5" y="182.5" class="node-name" dominant-baseline="middle" transform="translate(380.0 5.0)">f</text><path d="M126.56138466053447 173.36188451379743 L138.4386153394655 146.63811548620257" class="tree-path" transform="translate(380.0 5.0)"/></g><g class="node-h"><text x="102.5" y="227.5" class="node-name" dominant-baseline="middle" transform="translate(380.0 5.0)">h</text><path d="M106.56138466053447 218.36188451379743 L118.43861533946553 191.63811548620257" class="tree-path" transform="translate(380.0 5.0)"/></g><g class="node-j"><text x="82.5" y="272.5" class="node-name" dominant-baseline="middle" transform="translate(380.0 5.0)">j</text><path d="M86.56138466053447 263.3618845137974 L98.43861533946553 236.63811548620257" class="tree-path" transform="translate(380.0 5.0)"/></g><g class="node-l inside-node"><text x="62.5" y="317.5" class="node-name" dominant-baseline="middle" transform="translate(380.0 5.0)">l</text><path d="M66.56138466053447 308.3618845137974 L78.43861533946553 281.6381154862026" class="tree-path" transform="translate(380.0 5.0)"/></g><g class="node-m outside-node"><text x="102.5" y="317.5" class="node-name" dominant-baseline="middle" transform="translate(380.0 5.0)">m</text><path d="M98.43861533946553 308.3618845137974 L86.56138466053447 281.6381154862026" class="tree-path" transform="translate(380.0 5.0)"/></g><g class="node-k outside-node"><text x="122.5" y="272.5" class="node-name" dominant-baseline="middle" transform="translate(380.0 5.0)">k</text><path d="M118.43861533946553 263.3618845137974 L106.56138466053447 236.63811548620257" class="tree-path" transform="translate(380.0 5.0)"/></g><g class="node-i outside-node"><text x="142.5" y="227.5" class="node-name" dominant-baseline="middle" transform="translate(380.0 5.0)">i</text><path d="M138.4386153394655 218.36188451379743 L126.56138466053447 191.63811548620257" class="tree-path" transform="translate(380.0 5.0)"/></g><g class="node-g outside-node"><text x="162.5" y="182.5" class="node-name" dominant-baseline="middle" transform="translate(380.0 5.0)">g</text><path d="M158.4386153394655 173.36188451379743 L146.5613846605345 146.63811548620257" class="tree-path" transform="translate(380.0 5.0)"/></g><g class="node-e outside-node"><text x="182.5" y="137.5" class="node-name" dominant-baseline="middle" transform="translate(380.0 5.0)">e</text><path d="M178.4386153394655 128.36188451379743 L166.5613846605345 101.63811548620257" class="tree-path" transform="translate(380.0 5.0)"/></g><g class="node-c outside-node"><text x="202.5" y="92.5" class="node-name" dominant-baseline="middle" transform="translate(380.0 5.0)">c</text><path d="M198.4386153394655 83.36188451379743 L186.5613846605345 56.63811548620257" class="tree-path" transform="translate(380.0 5.0)"/></g></g></svg>