<svg xmlns="http://www.w3.org/2000/svg" width="750" height="375" version="1.1"><defs><clipPath id="geometry-area"><rect width="365" height="365" x="5" y="5"/></clipPath></defs><style>text{font-size:14px}.node-name{text-anchor:middle;font-family:&quot;Courier New&quot;,Courier,monospace}.arrow,.cut,.geometry-border{fill:none;stroke-width:1}.geometry-border{stroke:gray}.arrow,.cut{stroke:#00f}.cut{stroke-dasharray:5,3}.region-boundary{stroke:orange;stroke-width:2}.inside{fill:#aaa;opacity:.2}.tree-path{fill:none;stroke:gray;stroke-width:1}.inside-node{font-weight:700}</style><g class="geometry" clip-path="url(#geometry-area)"><g class="paths"><path d="M370.0 255.9375 L5.0 73.4375" class="cut"/><path d="M12.891778830476365 72.12607829404685 L5.0 73.4375 L8.685929933523296 80.53777608795299" class="arrow"/><path d="M187.5 164.6875 L96.25 119.06249999999999" class="region-boundary"/><path d="M96.25 119.06249999999999 L96.25 370.0" class="cut"/><path d="M91.54771798166021 363.5278640450004 L96.25 370.0 L100.95228201833979 363.5278640450004" class="arrow"/><path d="M96.25 119.06249999999999 L96.25 255.9375" class="region-boundary"/><path d="M96.25 255.9375 L233.125 187.5" class="cut"/><path d="M229.43907006647672 194.60027608795298 L233.125 187.5 L225.23322116952363 186.18857829404683" class="arrow"/><path d="M96.25 255.9375 L187.5 210.3125" class="region-boundary"/><path d="M96.25 255.9375 L233.125 187.5 L96.25 119.06249999999999 L96.25 255.9375" class="inside"/><path d="M187.5 210.3125 L370.0 301.5625" class="cut"/><path d="M362.10822116952363 302.87392170595314 L370.0 301.5625 L366.3140700664767 294.462223912047" class="arrow"/><path d="M187.5 210.3125 L278.75 255.9375" class="region-boundary"/><path d="M278.75 255.9375 L278.75 210.3125" class="cut"/><path d="M283.45228201833976 216.78463595499957 L278.75 210.3125 L274.04771798166024 216.78463595499957" class="arrow"/><path d="M278.75 255.9375 L278.75 210.3125" class="region-boundary"/><path d="M187.5 210.3125 L278.75 255.9375 L278.75 210.3125 L233.125 187.5 L187.5 210.3125" class="inside"/><path d="M278.75 210.3125 L278.75 5.0" class="cut"/><path d="M283.45228201833976 11.47213595499958 L278.75 5.0 L274.04771798166024 11.47213595499958" class="arrow"/><path d="M278.75 210.3125 L278.75 119.06249999999999" class="region-boundary"/><path d="M278.75 119.06249999999999 L187.5 164.6875" class="cut"/><path d="M191.18592993352328 157.58722391204702 L187.5 164.6875 L195.39177883047637 165.99892170595317" class="arrow"/><path d="M278.75 119.06249999999999 L187.5 164.6875" class="region-boundary"/><path d="M187.5 164.6875 L278.75 210.3125 L278.75 119.06249999999999 L187.5 164.6875" class="inside"/></g><g class="labels"><text x="187.5" y="164.688" class="node-name" dominant-baseline="middle">a</text><text x="96.25" y="244.531" class="node-name" dominant-baseline="middle">b</text><text x="164.688" y="221.719" class="node-name" dominant-baseline="middle">d</text><text x="141.875" y="187.5" class="node-name" dominant-baseline="middle">h</text><text x="278.75" y="255.938" class="node-name" dominant-baseline="middle">i</text><text x="278.75" y="233.125" class="node-name" dominant-baseline="middle">l</text><text x="243.264" y="217.917" class="node-name" dominant-baseline="middle">n</text><text x="324.375" y="255.938" class="node-name" dominant-baseline="middle">o</text><text x="220.768" y="306.553" class="node-name" dominant-baseline="middle">m</text><text x="49.358" y="232.808" class="node-name" dominant-baseline="middle">e</text><text x="278.75" y="107.656" class="node-name" dominant-baseline="middle">c</text><text x="233.125" y="141.875" class="node-name" dominant-baseline="middle">f</text><text x="248.333" y="164.688" class="node-name" dominant-baseline="middle">j</text><text x="154.232" y="68.447" class="node-name" dominant-baseline="middle">k</text><text x="325.896" y="119.443" class="node-name" dominant-baseline="middle">g</text></g></g><rect width="365" height="365" x="5" y="5" class="geometry-border"/><g class="tree"><g class="node-a"><text x="182.5" y="70" class="node-name" dominant-baseline="middle" transform="translate(380.0 5.0)">a</text></g><g class="node-b"><text x="91.25" y="115" class="node-name" dominant-baseline="middle" transform="translate(380.0 5.0)">b</text><path d="M100.21870870577568 110.57707515879555 L173.5312912942243 74.42292484120445" class="tree-path" transform="translate(380.0 5.0)"/></g><g class="node-d"><text x="45.625" y="160" class="node-name" dominant-baseline="middle" transform="translate(380.0 5.0)">d</text><path d="M52.744664484531626 152.9778651659414 L84.13033551546837 122.02213483405859" class="tree-path" transform="translate(380.0 5.0)"/></g><g class="node-h inside-node"><text x="22.813" y="205" class="node-name" dominant-baseline="middle" transform="translate(380.0 5.0)">h</text><path d="M27.33411931646686 196.08064134833936 L41.10338068353314 168.91935865166064" class="tree-path" transform="translate(380.0 5.0)"/></g><g class="node-i"><text x="68.438" y="205" class="node-name" dominant-baseline="middle" transform="translate(380.0 5.0)">i</text><path d="M63.91588068353314 196.08064134833936 L50.14661931646686 168.91935865166064" class="tree-path" transform="translate(380.0 5.0)"/></g><g class="node-l"><text x="57.031" y="250" class="node-name" dominant-baseline="middle" transform="translate(380.0 5.0)">l</text><path d="M59.48827127419628 240.30654620591056 L65.98047872580372 214.69345379408944" class="tree-path" transform="translate(380.0 5.0)"/></g><g class="node-n inside-node"><text x="51.328" y="295" class="node-name" dominant-baseline="middle" transform="translate(380.0 5.0)">n</text><path d="M52.58542890112177 285.07935551991585 L55.77394609887823 259.92064448008415" class="tree-path" transform="translate(380.0 5.0)"/></g><g class="node-o outside-node"><text x="62.734" y="295" class="node-name" dominant-baseline="middle" transform="translate(380.0 5.0)">o</text><path d="M61.47707109887823 285.07935551991585 L58.28855390112177 259.92064448008415" class="tree-path" transform="translate(380.0 5.0)"/></g><g class="node-m outside-node"><text x="79.844" y="250" class="node-name" dominant-baseline="middle" transform="translate(380.0 5.0)">m</text><path d="M77.38672872580372 240.30654620591056 L70.89452127419628 214.69345379408944" class="tree-path" transform="translate(380.0 5.0)"/></g><g class="node-e outside-node"><text x="136.875" y="160" class="node-name" dominant-baseline="middle" transform="translate(380.0 5.0)">e</text><path d="M129.75533551546837 152.9778651659414 L98.36966448453163 122.02213483405859" class="tree-path" transform="translate(380.0 5.0)"/></g><g class="node-c"><text x="273.75" y="115" class="node-name" dominant-baseline="middle" transform="translate(380.0 5.0)">c</text><path d="M264.78129129422433 110.57707515879555 L191.4687087057757 74.42292484120445" class="tree-path" transform="translate(380.0 5.0)"/></g><g class="node-f"><text x="228.125" y="160" class="node-name" dominant-baseline="middle" transform="translate(380.0 5.0)">f</text><path d="M235.24466448453163 152.9778651659414 L266.6303355154684 122.02213483405859" class="tree-path" transform="translate(380.0 5.0)"/></g><g class="node-j inside-node"><text x="205.313" y="205" class="node-name" dominant-baseline="middle" transform="translate(380.0 5.0)">j</text><path d="M209.83411931646685 196.08064134833936 L223.60338068353315 168.91935865166064" class="tree-path" transform="translate(380.0 5.0)"/></g><g class="node-k outside-node"><text x="250.938" y="205" class="node-name" dominant-baseline="middle" transform="translate(380.0 5.0)">k</text><path d="M246.41588068353315 196.08064134833936 L232.64661931646685 168.91935865166064" class="tree-path" transform="translate(380.0 5.0)"/></g><g class="node-g outside-node"><text x="319.375" y="160" class="node-name" dominant-baseline="middle" transform="translate(380.0 5.0)">g</text><path d="M312.2553355154684 152.9778651659414 L280.8696644845316 122.02213483405859" class="tree-path" transform="translate(380.0 5.0)"/></g></g></svg>